<?xml version="1.0" encoding="UTF-8"?>
<svg xmlns="http://www.w3.org/2000/svg" version="1.1" viewBox="0 0 28.2 24">
  <!-- Generator: Adobe Illustrator 28.7.1, SVG Export Plug-In . SVG Version: 1.2.0 Build 142)  -->
  <g>
    <g id="camerabody">
      <path d="M13.9,2.2h4.9c3.3,0,4.8,1.7,4.9,4.9v9.6c-.1,3.2-1.7,4.8-4.9,4.9h-9.7c-3.3-.1-4.8-1.7-4.9-4.9V7.1c0-3.2,1.7-4.8,4.9-4.9,1.3,0,1.6,0,4.8,0ZM13.9-.2h-4.9c-4.4.2-6.8,2.7-7,7.1v9.8c.2,4.4,2.6,6.8,7,7h9.8c4.4-.2,6.8-2.6,7-7V6.9C25.6,2.5,23.2.1,18.8,0h-4.9ZM13.9,5.6c-3.4,0-6.2,2.8-6.2,6.2s2.8,6.2,6.2,6.2,6.2-2.8,6.2-6.2-2.8-6.2-6.2-6.2ZM13.9,15.8c-2.2,0-4-1.8-4-4s1.8-4,4-4,4,1.8,4,4-1.8,4-4,4Z"/>
    </g>
    <g id="dot">
      <path d="M20.3,4c-.8,0-1.4.6-1.4,1.4s.6,1.4,1.4,1.4,1.4-.6,1.4-1.4-.6-1.4-1.4-1.4Z"/>
    </g>
  </g>
</svg>